<mxfile host="app.diagrams.net" modified="2024-01-03T12:30:07.468Z" agent="Mozilla/5.0 (X11; Linux x86_64) AppleWebKit/537.36 (KHTML, like Gecko) Chrome/120.0.0.0 Safari/537.36" etag="67DkJw5jjK-1ClLDZYVS" version="22.1.16" type="device">
  <diagram name="Page-1" id="-FgFamB2WBBP5KWbekqY">
    <mxGraphModel dx="1388" dy="1702" grid="1" gridSize="10" guides="1" tooltips="1" connect="1" arrows="1" fold="1" page="1" pageScale="1" pageWidth="850" pageHeight="1100" math="0" shadow="0">
      <root>
        <mxCell id="0" />
        <mxCell id="1" parent="0" />
        <mxCell id="VhmCBNO5PnUGDKum4l4V-2" value="1. Upload users with CSV or XLSX File&lt;br&gt;2. Create a notification template to send&amp;nbsp;&lt;br&gt;the message to multiple devices&lt;br&gt;3. Send the message to the list of devices" style="text;html=1;align=center;verticalAlign=middle;resizable=0;points=[];autosize=1;strokeColor=none;fillColor=none;" vertex="1" parent="1">
          <mxGeometry x="10" y="-1080" width="250" height="70" as="geometry" />
        </mxCell>
        <mxCell id="VhmCBNO5PnUGDKum4l4V-3" value="Actor" style="shape=umlActor;verticalLabelPosition=bottom;verticalAlign=top;html=1;" vertex="1" parent="1">
          <mxGeometry x="70" y="-940" width="30" height="60" as="geometry" />
        </mxCell>
        <mxCell id="VhmCBNO5PnUGDKum4l4V-4" value="API Service" style="verticalAlign=top;align=left;spacingTop=8;spacingLeft=2;spacingRight=12;shape=cube;size=10;direction=south;fontStyle=4;html=1;whiteSpace=wrap;" vertex="1" parent="1">
          <mxGeometry x="230" y="-945" width="120" height="70" as="geometry" />
        </mxCell>
        <mxCell id="VhmCBNO5PnUGDKum4l4V-5" value="" style="image;sketch=0;aspect=fixed;html=1;points=[];align=center;fontSize=12;image=img/lib/mscae/Database_General.svg;" vertex="1" parent="1">
          <mxGeometry x="270" y="-800" width="38" height="50" as="geometry" />
        </mxCell>
        <mxCell id="VhmCBNO5PnUGDKum4l4V-6" style="edgeStyle=orthogonalEdgeStyle;rounded=0;orthogonalLoop=1;jettySize=auto;html=1;exitX=0;exitY=0;exitDx=60;exitDy=60;exitPerimeter=0;entryX=0.531;entryY=-0.04;entryDx=0;entryDy=0;entryPerimeter=0;" edge="1" parent="1" source="VhmCBNO5PnUGDKum4l4V-4" target="VhmCBNO5PnUGDKum4l4V-5">
          <mxGeometry relative="1" as="geometry" />
        </mxCell>
        <mxCell id="VhmCBNO5PnUGDKum4l4V-7" style="edgeStyle=orthogonalEdgeStyle;rounded=0;orthogonalLoop=1;jettySize=auto;html=1;exitX=0.5;exitY=0.5;exitDx=0;exitDy=0;exitPerimeter=0;entryX=0;entryY=0;entryDx=35;entryDy=110;entryPerimeter=0;" edge="1" parent="1" source="VhmCBNO5PnUGDKum4l4V-3" target="VhmCBNO5PnUGDKum4l4V-4">
          <mxGeometry relative="1" as="geometry" />
        </mxCell>
        <mxCell id="VhmCBNO5PnUGDKum4l4V-8" value="Third Party Notification Services" style="verticalAlign=top;align=left;spacingTop=8;spacingLeft=2;spacingRight=12;shape=cube;size=10;direction=south;fontStyle=4;html=1;whiteSpace=wrap;" vertex="1" parent="1">
          <mxGeometry x="460" y="-1025" width="180" height="285" as="geometry" />
        </mxCell>
        <mxCell id="VhmCBNO5PnUGDKum4l4V-10" value="Amazon Ses" style="whiteSpace=wrap;html=1;" vertex="1" parent="1">
          <mxGeometry x="490" y="-970" width="110" height="40" as="geometry" />
        </mxCell>
        <mxCell id="VhmCBNO5PnUGDKum4l4V-11" value="Telegram" style="whiteSpace=wrap;html=1;" vertex="1" parent="1">
          <mxGeometry x="490" y="-920" width="110" height="40" as="geometry" />
        </mxCell>
        <mxCell id="VhmCBNO5PnUGDKum4l4V-12" value="Twilio" style="whiteSpace=wrap;html=1;" vertex="1" parent="1">
          <mxGeometry x="490" y="-870" width="110" height="40" as="geometry" />
        </mxCell>
        <mxCell id="VhmCBNO5PnUGDKum4l4V-14" value="...&lt;br&gt;" style="text;html=1;align=center;verticalAlign=middle;resizable=0;points=[];autosize=1;strokeColor=none;fillColor=none;" vertex="1" parent="1">
          <mxGeometry x="530" y="-830" width="30" height="30" as="geometry" />
        </mxCell>
        <mxCell id="VhmCBNO5PnUGDKum4l4V-16" value="Other Services" style="whiteSpace=wrap;html=1;" vertex="1" parent="1">
          <mxGeometry x="490" y="-800" width="110" height="40" as="geometry" />
        </mxCell>
        <mxCell id="VhmCBNO5PnUGDKum4l4V-17" style="edgeStyle=orthogonalEdgeStyle;rounded=0;orthogonalLoop=1;jettySize=auto;html=1;exitX=0;exitY=0;exitDx=30;exitDy=0;exitPerimeter=0;entryX=0;entryY=0;entryDx=147.5;entryDy=180;entryPerimeter=0;" edge="1" parent="1" source="VhmCBNO5PnUGDKum4l4V-4" target="VhmCBNO5PnUGDKum4l4V-8">
          <mxGeometry relative="1" as="geometry" />
        </mxCell>
      </root>
    </mxGraphModel>
  </diagram>
</mxfile>
